<svg width="256" height="256" viewBox="0 0 256 256" fill="none" xmlns="http://www.w3.org/2000/svg">
<rect width="256" height="256" rx="128" fill="black"/>
<path d="M130.071 175.048C123.073 175.048 116.972 173.725 111.767 171.08C106.561 168.435 102.422 164.808 99.3505 160.2C96.3638 155.507 94.6145 150.088 94.1025 143.944L105.623 143.176C106.22 147.699 107.543 151.539 109.591 154.696C111.639 157.853 114.369 160.243 117.783 161.864C121.281 163.485 125.463 164.296 130.327 164.296C134.593 164.296 138.22 163.741 141.207 162.632C144.193 161.523 146.455 159.901 147.991 157.768C149.612 155.635 150.423 153.032 150.423 149.96C150.423 147.144 149.74 144.669 148.375 142.536C147.095 140.317 144.577 138.312 140.823 136.52C137.153 134.643 131.692 132.808 124.439 131.016C117.441 129.224 111.852 127.261 107.671 125.128C103.575 122.995 100.588 120.392 98.7105 117.32C96.9185 114.248 96.0225 110.451 96.0225 105.928C96.0225 100.808 97.2172 96.328 99.6065 92.488C102.081 88.5627 105.58 85.5333 110.103 83.4C114.625 81.1813 120.001 80.072 126.231 80.072C132.887 80.072 138.604 81.352 143.383 83.912C148.161 86.3867 151.959 89.8 154.775 94.152C157.591 98.504 159.34 103.453 160.023 109L148.503 109.768C147.991 106.099 146.796 102.856 144.919 100.04C143.127 97.1387 140.652 94.8773 137.495 93.256C134.337 91.6347 130.497 90.824 125.975 90.824C120.343 90.824 115.863 92.1893 112.535 94.92C109.207 97.5653 107.543 101.064 107.543 105.416C107.543 108.232 108.183 110.579 109.463 112.456C110.828 114.248 113.217 115.869 116.631 117.32C120.044 118.685 124.951 120.179 131.351 121.8C138.945 123.677 144.961 125.939 149.399 128.584C153.921 131.144 157.121 134.131 158.999 137.544C160.961 140.957 161.943 144.84 161.943 149.192C161.943 154.483 160.577 159.091 157.847 163.016C155.116 166.856 151.361 169.843 146.583 171.976C141.804 174.024 136.3 175.048 130.071 175.048Z" fill="white"/>
</svg>
