<svg width="400" height="400" viewBox="0 0 400 400" fill="none" xmlns="http://www.w3.org/2000/svg">
<line x1="25" y1="-2.18557e-08" x2="25" y2="400" stroke="#E4E4E4"/>
<line x1="75" y1="-2.18557e-08" x2="75" y2="400" stroke="#E4E4E4"/>
<line x1="125" y1="-2.18557e-08" x2="125" y2="400" stroke="#E4E4E4"/>
<line x1="175" y1="-2.18557e-08" x2="175" y2="400" stroke="#E4E4E4"/>
<line x1="225" y1="-2.18557e-08" x2="225" y2="400" stroke="#E4E4E4"/>
<line x1="275" y1="-2.18557e-08" x2="275" y2="400" stroke="#E4E4E4"/>
<line x1="325" y1="-2.18557e-08" x2="325" y2="400" stroke="#E4E4E4"/>
<line x1="375" y1="-2.18557e-08" x2="375" y2="400" stroke="#E4E4E4"/>
<line x1="4.37114e-08" y1="375" x2="400" y2="375" stroke="#E4E4E4"/>
<line x1="4.37114e-08" y1="325" x2="400" y2="325" stroke="#E4E4E4"/>
<line x1="4.37114e-08" y1="275" x2="400" y2="275" stroke="#E4E4E4"/>
<line x1="4.37114e-08" y1="225" x2="400" y2="225" stroke="#E4E4E4"/>
<line x1="-4.37114e-08" y1="175" x2="400" y2="175" stroke="#E4E4E4"/>
<line x1="4.37114e-08" y1="125" x2="400" y2="125" stroke="#E4E4E4"/>
<line x1="4.37114e-08" y1="75" x2="400" y2="75" stroke="#E4E4E4"/>
<line x1="4.37114e-08" y1="25" x2="400" y2="25" stroke="#E4E4E4"/>
<line x1="325" y1="19.5" x2="325" y2="30.5" stroke="#939393"/>
<line x1="319.5" y1="25" x2="330.5" y2="25" stroke="#939393"/>
<line x1="275" y1="19.5" x2="275" y2="30.5" stroke="#939393"/>
<line x1="269.5" y1="25" x2="280.5" y2="25" stroke="#939393"/>
<line x1="225" y1="19.5" x2="225" y2="30.5" stroke="#939393"/>
<line x1="219.5" y1="25" x2="230.5" y2="25" stroke="#939393"/>
<line x1="175" y1="19.5" x2="175" y2="30.5" stroke="#939393"/>
<line x1="169.5" y1="25" x2="180.5" y2="25" stroke="#939393"/>
<line x1="125" y1="19.5" x2="125" y2="30.5" stroke="#939393"/>
<line x1="119.5" y1="25" x2="130.5" y2="25" stroke="#939393"/>
<line x1="75" y1="19.5" x2="75" y2="30.5" stroke="#939393"/>
<line x1="69.5" y1="25" x2="80.5" y2="25" stroke="#939393"/>
<line x1="25" y1="19.5" x2="25" y2="30.5" stroke="#939393"/>
<line x1="19.5" y1="25" x2="30.5" y2="25" stroke="#939393"/>
<line x1="375" y1="19.5" x2="375" y2="30.5" stroke="#939393"/>
<line x1="369.5" y1="25" x2="380.5" y2="25" stroke="#939393"/>
<line x1="325" y1="69.5" x2="325" y2="80.5" stroke="#939393"/>
<line x1="319.5" y1="75" x2="330.5" y2="75" stroke="#939393"/>
<line x1="275" y1="69.5" x2="275" y2="80.5" stroke="#939393"/>
<line x1="269.5" y1="75" x2="280.5" y2="75" stroke="#939393"/>
<line x1="225" y1="69.5" x2="225" y2="80.5" stroke="#939393"/>
<line x1="219.5" y1="75" x2="230.5" y2="75" stroke="#939393"/>
<line x1="175" y1="69.5" x2="175" y2="80.5" stroke="#939393"/>
<line x1="169.5" y1="75" x2="180.5" y2="75" stroke="#939393"/>
<line x1="125" y1="69.5" x2="125" y2="80.5" stroke="#939393"/>
<line x1="119.5" y1="75" x2="130.5" y2="75" stroke="#939393"/>
<line x1="75" y1="69.5" x2="75" y2="80.5" stroke="#939393"/>
<line x1="69.5" y1="75" x2="80.5" y2="75" stroke="#939393"/>
<line x1="25" y1="69.5" x2="25" y2="80.5" stroke="#939393"/>
<line x1="19.5" y1="75" x2="30.5" y2="75" stroke="#939393"/>
<line x1="375" y1="69.5" x2="375" y2="80.5" stroke="#939393"/>
<line x1="369.5" y1="75" x2="380.5" y2="75" stroke="#939393"/>
<line x1="325" y1="119.5" x2="325" y2="130.5" stroke="#939393"/>
<line x1="319.5" y1="125" x2="330.5" y2="125" stroke="#939393"/>
<line x1="275" y1="119.5" x2="275" y2="130.5" stroke="#939393"/>
<line x1="269.5" y1="125" x2="280.5" y2="125" stroke="#939393"/>
<line x1="225" y1="119.5" x2="225" y2="130.5" stroke="#939393"/>
<line x1="219.5" y1="125" x2="230.5" y2="125" stroke="#939393"/>
<line x1="175" y1="119.5" x2="175" y2="130.5" stroke="#939393"/>
<line x1="169.5" y1="125" x2="180.5" y2="125" stroke="#939393"/>
<line x1="125" y1="119.5" x2="125" y2="130.5" stroke="#939393"/>
<line x1="119.5" y1="125" x2="130.5" y2="125" stroke="#939393"/>
<line x1="75" y1="119.5" x2="75" y2="130.5" stroke="#939393"/>
<line x1="69.5" y1="125" x2="80.5" y2="125" stroke="#939393"/>
<line x1="25" y1="119.5" x2="25" y2="130.5" stroke="#939393"/>
<line x1="19.5" y1="125" x2="30.5" y2="125" stroke="#939393"/>
<line x1="375" y1="119.5" x2="375" y2="130.5" stroke="#939393"/>
<line x1="369.5" y1="125" x2="380.5" y2="125" stroke="#939393"/>
<line x1="325" y1="169.5" x2="325" y2="180.5" stroke="#939393"/>
<line x1="319.5" y1="175" x2="330.5" y2="175" stroke="#939393"/>
<line x1="275" y1="169.5" x2="275" y2="180.5" stroke="#939393"/>
<line x1="269.5" y1="175" x2="280.5" y2="175" stroke="#939393"/>
<line x1="225" y1="169.5" x2="225" y2="180.5" stroke="#939393"/>
<line x1="219.5" y1="175" x2="230.5" y2="175" stroke="#939393"/>
<line x1="175" y1="169.5" x2="175" y2="180.5" stroke="#939393"/>
<line x1="169.5" y1="175" x2="180.5" y2="175" stroke="#939393"/>
<line x1="125" y1="169.5" x2="125" y2="180.5" stroke="#939393"/>
<line x1="119.5" y1="175" x2="130.5" y2="175" stroke="#939393"/>
<line x1="75" y1="169.5" x2="75" y2="180.5" stroke="#939393"/>
<line x1="69.5" y1="175" x2="80.5" y2="175" stroke="#939393"/>
<line x1="25" y1="169.5" x2="25" y2="180.5" stroke="#939393"/>
<line x1="19.5" y1="175" x2="30.5" y2="175" stroke="#939393"/>
<line x1="375" y1="169.5" x2="375" y2="180.5" stroke="#939393"/>
<line x1="369.5" y1="175" x2="380.5" y2="175" stroke="#939393"/>
<line x1="325" y1="219.5" x2="325" y2="230.5" stroke="#939393"/>
<line x1="319.5" y1="225" x2="330.5" y2="225" stroke="#939393"/>
<line x1="275" y1="219.5" x2="275" y2="230.5" stroke="#939393"/>
<line x1="269.5" y1="225" x2="280.5" y2="225" stroke="#939393"/>
<line x1="225" y1="219.5" x2="225" y2="230.5" stroke="#939393"/>
<line x1="219.5" y1="225" x2="230.5" y2="225" stroke="#939393"/>
<line x1="175" y1="219.5" x2="175" y2="230.5" stroke="#939393"/>
<line x1="169.5" y1="225" x2="180.5" y2="225" stroke="#939393"/>
<line x1="125" y1="219.5" x2="125" y2="230.5" stroke="#939393"/>
<line x1="119.5" y1="225" x2="130.5" y2="225" stroke="#939393"/>
<line x1="75" y1="219.5" x2="75" y2="230.5" stroke="#939393"/>
<line x1="69.5" y1="225" x2="80.5" y2="225" stroke="#939393"/>
<line x1="25" y1="219.5" x2="25" y2="230.5" stroke="#939393"/>
<line x1="19.5" y1="225" x2="30.5" y2="225" stroke="#939393"/>
<line x1="375" y1="219.5" x2="375" y2="230.5" stroke="#939393"/>
<line x1="369.5" y1="225" x2="380.5" y2="225" stroke="#939393"/>
<line x1="325" y1="269.5" x2="325" y2="280.5" stroke="#939393"/>
<line x1="319.5" y1="275" x2="330.5" y2="275" stroke="#939393"/>
<line x1="275" y1="269.5" x2="275" y2="280.5" stroke="#939393"/>
<line x1="269.5" y1="275" x2="280.5" y2="275" stroke="#939393"/>
<line x1="225" y1="269.5" x2="225" y2="280.5" stroke="#939393"/>
<line x1="219.5" y1="275" x2="230.5" y2="275" stroke="#939393"/>
<line x1="175" y1="269.5" x2="175" y2="280.5" stroke="#939393"/>
<line x1="169.5" y1="275" x2="180.5" y2="275" stroke="#939393"/>
<line x1="125" y1="269.5" x2="125" y2="280.5" stroke="#939393"/>
<line x1="119.5" y1="275" x2="130.5" y2="275" stroke="#939393"/>
<line x1="75" y1="269.5" x2="75" y2="280.5" stroke="#939393"/>
<line x1="69.5" y1="275" x2="80.5" y2="275" stroke="#939393"/>
<line x1="25" y1="269.5" x2="25" y2="280.5" stroke="#939393"/>
<line x1="19.5" y1="275" x2="30.5" y2="275" stroke="#939393"/>
<line x1="375" y1="269.5" x2="375" y2="280.5" stroke="#939393"/>
<line x1="369.5" y1="275" x2="380.5" y2="275" stroke="#939393"/>
<line x1="325" y1="319.5" x2="325" y2="330.5" stroke="#939393"/>
<line x1="319.5" y1="325" x2="330.5" y2="325" stroke="#939393"/>
<line x1="275" y1="319.5" x2="275" y2="330.5" stroke="#939393"/>
<line x1="269.5" y1="325" x2="280.5" y2="325" stroke="#939393"/>
<line x1="225" y1="319.5" x2="225" y2="330.5" stroke="#939393"/>
<line x1="219.5" y1="325" x2="230.5" y2="325" stroke="#939393"/>
<line x1="175" y1="319.5" x2="175" y2="330.5" stroke="#939393"/>
<line x1="169.5" y1="325" x2="180.5" y2="325" stroke="#939393"/>
<line x1="125" y1="319.5" x2="125" y2="330.5" stroke="#939393"/>
<line x1="119.5" y1="325" x2="130.5" y2="325" stroke="#939393"/>
<line x1="75" y1="319.5" x2="75" y2="330.5" stroke="#939393"/>
<line x1="69.5" y1="325" x2="80.5" y2="325" stroke="#939393"/>
<line x1="25" y1="319.5" x2="25" y2="330.5" stroke="#939393"/>
<line x1="19.5" y1="325" x2="30.5" y2="325" stroke="#939393"/>
<line x1="375" y1="319.5" x2="375" y2="330.5" stroke="#939393"/>
<line x1="369.5" y1="325" x2="380.5" y2="325" stroke="#939393"/>
<line x1="325" y1="369.5" x2="325" y2="380.5" stroke="#939393"/>
<line x1="319.5" y1="375" x2="330.5" y2="375" stroke="#939393"/>
<line x1="275" y1="369.5" x2="275" y2="380.5" stroke="#939393"/>
<line x1="269.5" y1="375" x2="280.5" y2="375" stroke="#939393"/>
<line x1="225" y1="369.5" x2="225" y2="380.5" stroke="#939393"/>
<line x1="219.5" y1="375" x2="230.5" y2="375" stroke="#939393"/>
<line x1="175" y1="369.5" x2="175" y2="380.5" stroke="#939393"/>
<line x1="169.5" y1="375" x2="180.5" y2="375" stroke="#939393"/>
<line x1="125" y1="369.5" x2="125" y2="380.5" stroke="#939393"/>
<line x1="119.5" y1="375" x2="130.5" y2="375" stroke="#939393"/>
<line x1="75" y1="369.5" x2="75" y2="380.5" stroke="#939393"/>
<line x1="69.5" y1="375" x2="80.5" y2="375" stroke="#939393"/>
<line x1="25" y1="369.5" x2="25" y2="380.5" stroke="#939393"/>
<line x1="19.5" y1="375" x2="30.5" y2="375" stroke="#939393"/>
<line x1="375" y1="369.5" x2="375" y2="380.5" stroke="#939393"/>
<line x1="369.5" y1="375" x2="380.5" y2="375" stroke="#939393"/>
</svg>
