<svg width="248" height="6" viewBox="0 0 248 6" fill="none" xmlns="http://www.w3.org/2000/svg">
<g clip-path="url(#clip0_2818_138)">
<mask id="mask0_2818_138" style="mask-type:luminance" maskUnits="userSpaceOnUse" x="121" y="0" width="6" height="6">
<path d="M127 0H121V6H127V0Z" fill="white"/>
</mask>
<g mask="url(#mask0_2818_138)">
<mask id="mask1_2818_138" style="mask-type:alpha" maskUnits="userSpaceOnUse" x="121" y="0" width="6" height="6">
<path d="M123.908 1.01229C123.876 1.14052 123.834 1.26524 123.782 1.38716C123.645 1.70446 123.458 1.98222 123.22 2.2202C122.982 2.45794 122.704 2.64537 122.387 2.78203C122.265 2.83445 122.14 2.87657 122.012 2.90886C121.97 2.91939 121.94 2.95683 121.94 3.00012C121.94 3.04341 121.97 3.08085 122.012 3.09138C122.14 3.12367 122.265 3.16579 122.387 3.21821C122.704 3.35486 122.981 3.54206 123.22 3.78004C123.458 4.01802 123.645 4.29578 123.782 4.61308C123.834 4.73476 123.876 4.85972 123.908 4.98795C123.919 5.02983 123.957 5.05932 124 5.05932C124.043 5.05932 124.08 5.02983 124.091 4.98795C124.123 4.85972 124.165 4.73499 124.218 4.61308C124.354 4.29578 124.542 4.01825 124.78 3.78004C125.018 3.54206 125.295 3.35463 125.613 3.21821C125.734 3.16579 125.859 3.12367 125.987 3.09138C126.029 3.08085 126.059 3.04317 126.059 3.00012C126.059 2.95683 126.029 2.91939 125.987 2.90886C125.859 2.87657 125.735 2.83445 125.613 2.78203C125.295 2.64537 125.018 2.45817 124.78 2.2202C124.542 1.98222 124.354 1.70446 124.218 1.38716C124.165 1.26548 124.123 1.14052 124.091 1.01229C124.08 0.970402 124.043 0.940918 124 0.940918C123.956 0.940918 123.919 0.970402 123.908 1.01229Z" fill="url(#paint0_linear_2818_138)"/>
</mask>
<g mask="url(#mask1_2818_138)">
<path d="M123.657 7.08968L128.089 3.34295L124.343 -1.0896L119.91 2.65714L123.657 7.08968Z" fill="#FF591D"/>
</g>
</g>
</g>
<g clip-path="url(#clip1_2818_138)">
<mask id="mask2_2818_138" style="mask-type:luminance" maskUnits="userSpaceOnUse" x="137" y="1" width="4" height="4">
<path d="M141 1H137V5H141V1Z" fill="white"/>
</mask>
<g mask="url(#mask2_2818_138)">
<mask id="mask3_2818_138" style="mask-type:alpha" maskUnits="userSpaceOnUse" x="137" y="1" width="4" height="4">
<path d="M138.999 1.82153C139.015 1.86978 139.034 1.91719 139.054 1.96411C139.15 2.18697 139.281 2.38321 139.449 2.55103C139.617 2.71868 139.813 2.85061 140.035 2.94653C140.082 2.96647 140.129 2.98349 140.177 2.99927C140.129 3.01508 140.082 3.03393 140.035 3.05396C139.812 3.14977 139.617 3.28175 139.449 3.44946C139.282 3.61734 139.15 3.81274 139.054 4.0354C139.034 4.08192 139.015 4.12925 138.999 4.177C138.983 4.12935 138.966 4.08175 138.946 4.0354C138.851 3.81274 138.718 3.61717 138.551 3.44946C138.383 3.28165 138.187 3.14993 137.964 3.05396C137.917 3.03377 137.869 3.01519 137.821 2.99927C137.869 2.9834 137.917 2.96666 137.964 2.94653C138.187 2.85055 138.383 2.71868 138.551 2.55103C138.719 2.38316 138.85 2.18693 138.946 1.96411C138.966 1.91733 138.983 1.86956 138.999 1.82153Z" stroke="#FF591D" stroke-width="0.2"/>
</mask>
<g mask="url(#mask3_2818_138)">
<path d="M138.771 5.72654L141.726 3.22871L139.228 0.273682L136.273 2.77151L138.771 5.72654Z" fill="#FF591D"/>
</g>
</g>
</g>
<g clip-path="url(#clip2_2818_138)">
<mask id="mask4_2818_138" style="mask-type:luminance" maskUnits="userSpaceOnUse" x="107" y="1" width="4" height="4">
<path d="M111 1H107V5H111V1Z" fill="white"/>
</mask>
<g mask="url(#mask4_2818_138)">
<mask id="mask5_2818_138" style="mask-type:alpha" maskUnits="userSpaceOnUse" x="107" y="1" width="4" height="4">
<path d="M108.999 1.82153C109.015 1.86978 109.034 1.91719 109.054 1.96411C109.15 2.18697 109.281 2.38321 109.449 2.55103C109.617 2.71868 109.813 2.85061 110.035 2.94653C110.082 2.96647 110.129 2.98349 110.177 2.99927C110.129 3.01508 110.082 3.03393 110.035 3.05396C109.812 3.14977 109.617 3.28175 109.449 3.44946C109.282 3.61734 109.15 3.81274 109.054 4.0354C109.034 4.08192 109.015 4.12925 108.999 4.177C108.983 4.12935 108.966 4.08175 108.946 4.0354C108.851 3.81274 108.718 3.61717 108.551 3.44946C108.383 3.28165 108.187 3.14993 107.964 3.05396C107.917 3.03377 107.869 3.01519 107.821 2.99927C107.869 2.9834 107.917 2.96666 107.964 2.94653C108.187 2.85055 108.383 2.71868 108.551 2.55103C108.719 2.38316 108.85 2.18693 108.946 1.96411C108.966 1.91733 108.983 1.86956 108.999 1.82153Z" stroke="#FF591D" stroke-width="0.2"/>
</mask>
<g mask="url(#mask5_2818_138)">
<path d="M108.771 5.72654L111.726 3.22871L109.228 0.273682L106.273 2.77151L108.771 5.72654Z" fill="#FF591D"/>
</g>
</g>
</g>
<line x1="144" y1="3" x2="248" y2="3" stroke="#FF956E" stroke-opacity="0.24"/>
<line y1="3" x2="104" y2="3" stroke="#FF956E" stroke-opacity="0.24"/>
<circle cx="117.5" cy="3" r="0.5" fill="#F9E0D6"/>
<circle cx="130.5" cy="3" r="0.5" fill="#F9E0D6"/>
<circle cx="133.5" cy="3" r="0.5" fill="#F9E0D6"/>
<circle cx="114.5" cy="3" r="0.5" fill="#F9E0D6"/>
<defs>
<linearGradient id="paint0_linear_2818_138" x1="123.227" y1="3.60852" x2="124.725" y2="2.34492" gradientUnits="userSpaceOnUse">
<stop stop-color="#346BF1"/>
<stop offset="0.22" stop-color="#3279F8"/>
<stop offset="0.45" stop-color="#3186FF"/>
<stop offset="0.72" stop-color="#4093FF"/>
<stop offset="0.99" stop-color="#4FA0FF"/>
</linearGradient>
<clipPath id="clip0_2818_138">
<rect width="6" height="6" fill="white" transform="translate(121)"/>
</clipPath>
<clipPath id="clip1_2818_138">
<rect width="4" height="4" fill="white" transform="translate(137 1)"/>
</clipPath>
<clipPath id="clip2_2818_138">
<rect width="4" height="4" fill="white" transform="translate(107 1)"/>
</clipPath>
</defs>
</svg>
