<svg width="77" height="17" viewBox="0 0 77 17" fill="none" xmlns="http://www.w3.org/2000/svg">
<path d="M4.85231 13.192C4.19631 13.192 3.62431 13.068 3.13631 12.82C2.64831 12.572 2.26031 12.232 1.97231 11.8C1.69231 11.36 1.52831 10.852 1.48031 10.276L2.56031 10.204C2.61631 10.628 2.74031 10.988 2.93231 11.284C3.12431 11.58 3.38031 11.804 3.70031 11.956C4.02831 12.108 4.42031 12.184 4.87631 12.184C5.27631 12.184 5.61631 12.132 5.89631 12.028C6.17631 11.924 6.38831 11.772 6.53231 11.572C6.68431 11.372 6.76031 11.128 6.76031 10.84C6.76031 10.576 6.69631 10.344 6.56831 10.144C6.44831 9.936 6.21231 9.748 5.86031 9.58C5.51631 9.404 5.00431 9.232 4.32431 9.064C3.66831 8.896 3.14431 8.712 2.75231 8.512C2.36831 8.312 2.08831 8.068 1.91231 7.78C1.74431 7.492 1.66031 7.136 1.66031 6.712C1.66031 6.232 1.77231 5.812 1.99631 5.452C2.22831 5.084 2.55631 4.8 2.98031 4.6C3.40431 4.392 3.90831 4.288 4.49231 4.288C5.11631 4.288 5.65231 4.408 6.10031 4.648C6.54831 4.88 6.90431 5.2 7.16831 5.608C7.43231 6.016 7.59631 6.48 7.66031 7L6.58031 7.072C6.53231 6.728 6.42031 6.424 6.24431 6.16C6.07631 5.888 5.84431 5.676 5.54831 5.524C5.25231 5.372 4.89231 5.296 4.46831 5.296C3.94031 5.296 3.52031 5.424 3.20831 5.68C2.89631 5.928 2.74031 6.256 2.74031 6.664C2.74031 6.928 2.80031 7.148 2.92031 7.324C3.04831 7.492 3.27231 7.644 3.59231 7.78C3.91231 7.908 4.37231 8.048 4.97231 8.2C5.68431 8.376 6.24831 8.588 6.66431 8.836C7.08831 9.076 7.38831 9.356 7.56431 9.676C7.74831 9.996 7.84031 10.36 7.84031 10.768C7.84031 11.264 7.71231 11.696 7.45631 12.064C7.20031 12.424 6.84831 12.704 6.40031 12.904C5.95231 13.096 5.43631 13.192 4.85231 13.192ZM11.2893 13.144C10.6333 13.144 10.1093 12.992 9.71728 12.688C9.33328 12.384 9.14128 11.96 9.14128 11.416C9.14128 10.872 9.30128 10.444 9.62128 10.132C9.94128 9.82 10.4493 9.6 11.1453 9.472L13.4013 9.052C13.4013 8.516 13.2733 8.116 13.0173 7.852C12.7693 7.588 12.3933 7.456 11.8893 7.456C11.4493 7.456 11.1013 7.556 10.8453 7.756C10.5893 7.948 10.4133 8.228 10.3173 8.596L9.24928 8.512C9.36928 7.912 9.65728 7.428 10.1133 7.06C10.5773 6.684 11.1693 6.496 11.8893 6.496C12.7053 6.496 13.3293 6.728 13.7613 7.192C14.1933 7.648 14.4093 8.28 14.4093 9.088V11.716C14.4093 11.86 14.4333 11.964 14.4813 12.028C14.5373 12.084 14.6253 12.112 14.7453 12.112H14.9973V13C14.9653 13.008 14.9133 13.012 14.8413 13.012C14.7693 13.02 14.6933 13.024 14.6133 13.024C14.3253 13.024 14.0893 12.98 13.9053 12.892C13.7293 12.796 13.6013 12.652 13.5213 12.46C13.4413 12.26 13.4013 12 13.4013 11.68L13.5213 11.704C13.4653 11.976 13.3293 12.224 13.1133 12.448C12.8973 12.664 12.6293 12.836 12.3093 12.964C11.9893 13.084 11.6493 13.144 11.2893 13.144ZM11.3853 12.256C11.8093 12.256 12.1693 12.176 12.4653 12.016C12.7693 11.848 13.0013 11.624 13.1613 11.344C13.3213 11.056 13.4013 10.736 13.4013 10.384V9.928L11.3373 10.312C10.9053 10.392 10.6053 10.516 10.4373 10.684C10.2773 10.844 10.1973 11.056 10.1973 11.32C10.1973 11.616 10.3013 11.848 10.5093 12.016C10.7253 12.176 11.0173 12.256 11.3853 12.256ZM18.4283 13.144C17.8603 13.144 17.3763 13.052 16.9763 12.868C16.5843 12.684 16.2763 12.432 16.0523 12.112C15.8363 11.784 15.7123 11.412 15.6803 10.996L16.7363 10.924C16.8003 11.308 16.9643 11.616 17.2283 11.848C17.4923 12.072 17.8923 12.184 18.4283 12.184C18.8603 12.184 19.2043 12.116 19.4603 11.98C19.7243 11.836 19.8563 11.608 19.8563 11.296C19.8563 11.128 19.8163 10.988 19.7363 10.876C19.6563 10.764 19.5003 10.668 19.2683 10.588C19.0363 10.5 18.6923 10.416 18.2363 10.336C17.6283 10.224 17.1483 10.088 16.7963 9.928C16.4523 9.76 16.2043 9.556 16.0523 9.316C15.9083 9.068 15.8363 8.776 15.8363 8.44C15.8363 7.872 16.0443 7.408 16.4603 7.048C16.8763 6.68 17.4683 6.496 18.2363 6.496C18.7563 6.496 19.1923 6.592 19.5443 6.784C19.9043 6.968 20.1843 7.216 20.3843 7.528C20.5923 7.832 20.7283 8.168 20.7923 8.536L19.7363 8.608C19.6883 8.384 19.6003 8.188 19.4723 8.02C19.3443 7.844 19.1763 7.708 18.9683 7.612C18.7603 7.508 18.5123 7.456 18.2243 7.456C17.7683 7.456 17.4323 7.544 17.2163 7.72C17.0003 7.896 16.8923 8.12 16.8923 8.392C16.8923 8.6 16.9403 8.772 17.0363 8.908C17.1403 9.036 17.3043 9.144 17.5283 9.232C17.7523 9.312 18.0523 9.384 18.4283 9.448C19.0763 9.56 19.5803 9.696 19.9403 9.856C20.3003 10.016 20.5523 10.212 20.6963 10.444C20.8403 10.676 20.9123 10.96 20.9123 11.296C20.9123 11.688 20.8003 12.024 20.5763 12.304C20.3603 12.576 20.0643 12.784 19.6883 12.928C19.3203 13.072 18.9003 13.144 18.4283 13.144ZM22.2881 13V4.48H23.2961V8.044L23.1761 8.02C23.2561 7.668 23.3921 7.38 23.5841 7.156C23.7761 6.932 24.0121 6.768 24.2921 6.664C24.5721 6.552 24.8801 6.496 25.2161 6.496C25.6721 6.496 26.0561 6.6 26.3681 6.808C26.6881 7.008 26.9281 7.292 27.0881 7.66C27.2561 8.02 27.3401 8.436 27.3401 8.908V13H26.3321V9.196C26.3321 8.58 26.2201 8.124 25.9961 7.828C25.7801 7.532 25.4481 7.384 25.0001 7.384C24.4881 7.384 24.0761 7.54 23.7641 7.852C23.4521 8.164 23.2961 8.616 23.2961 9.208V13H22.2881ZM30.4706 13L28.1546 6.64H29.2586L31.1066 11.968L32.9546 6.64H34.0586L31.7426 13H30.4706ZM36.7307 13.144C36.0747 13.144 35.5507 12.992 35.1587 12.688C34.7747 12.384 34.5827 11.96 34.5827 11.416C34.5827 10.872 34.7427 10.444 35.0627 10.132C35.3827 9.82 35.8907 9.6 36.5867 9.472L38.8427 9.052C38.8427 8.516 38.7147 8.116 38.4587 7.852C38.2107 7.588 37.8347 7.456 37.3307 7.456C36.8907 7.456 36.5427 7.556 36.2867 7.756C36.0307 7.948 35.8547 8.228 35.7587 8.596L34.6907 8.512C34.8107 7.912 35.0987 7.428 35.5547 7.06C36.0187 6.684 36.6107 6.496 37.3307 6.496C38.1467 6.496 38.7707 6.728 39.2027 7.192C39.6347 7.648 39.8507 8.28 39.8507 9.088V11.716C39.8507 11.86 39.8747 11.964 39.9227 12.028C39.9787 12.084 40.0667 12.112 40.1867 12.112H40.4387V13C40.4067 13.008 40.3547 13.012 40.2827 13.012C40.2107 13.02 40.1347 13.024 40.0547 13.024C39.7667 13.024 39.5307 12.98 39.3467 12.892C39.1707 12.796 39.0427 12.652 38.9627 12.46C38.8827 12.26 38.8427 12 38.8427 11.68L38.9627 11.704C38.9067 11.976 38.7707 12.224 38.5547 12.448C38.3387 12.664 38.0707 12.836 37.7507 12.964C37.4307 13.084 37.0907 13.144 36.7307 13.144ZM36.8267 12.256C37.2507 12.256 37.6107 12.176 37.9067 12.016C38.2107 11.848 38.4427 11.624 38.6027 11.344C38.7627 11.056 38.8427 10.736 38.8427 10.384V9.928L36.7787 10.312C36.3467 10.392 36.0467 10.516 35.8787 10.684C35.7187 10.844 35.6387 11.056 35.6387 11.32C35.6387 11.616 35.7427 11.848 35.9507 12.016C36.1667 12.176 36.4587 12.256 36.8267 12.256ZM43.5888 13C43.0128 13 42.5848 12.868 42.3048 12.604C42.0328 12.34 41.8968 11.928 41.8968 11.368V5.152H42.9048V11.344C42.9048 11.632 42.9688 11.832 43.0968 11.944C43.2248 12.056 43.4208 12.112 43.6848 12.112H44.5968V13H43.5888ZM40.9608 7.528V6.64H44.5968V7.528H40.9608Z" fill="black"/>
<path d="M74.5177 4.37358V3.06321H75.1463C75.2126 3.06321 75.2765 3.07919 75.338 3.11115C75.4008 3.14193 75.4523 3.18809 75.4925 3.24964C75.5339 3.31001 75.5546 3.38459 75.5546 3.47337C75.5546 3.56214 75.5333 3.63909 75.4907 3.70419C75.4493 3.76811 75.396 3.81723 75.3309 3.85156C75.267 3.88589 75.2007 3.90305 75.1321 3.90305H74.6456V3.72372H75.0717C75.1321 3.72372 75.1859 3.70241 75.2333 3.6598C75.2818 3.616 75.3061 3.55386 75.3061 3.47337C75.3061 3.39051 75.2818 3.33132 75.2333 3.29581C75.1859 3.2603 75.1338 3.24254 75.077 3.24254H74.7468V4.37358H74.5177ZM75.2812 3.76456L75.6079 4.37358H75.3522L75.0344 3.76456H75.2812ZM74.9989 5.15483C74.8024 5.15483 74.6183 5.11813 74.4467 5.04474C74.2751 4.97135 74.1241 4.86955 73.9939 4.73935C73.8637 4.60914 73.7619 4.45821 73.6885 4.28658C73.6151 4.11494 73.5784 3.93087 73.5784 3.73438C73.5784 3.53788 73.6151 3.35381 73.6885 3.18217C73.7619 3.01054 73.8637 2.85961 73.9939 2.7294C74.1241 2.5992 74.2751 2.4974 74.4467 2.42401C74.6183 2.35062 74.8024 2.31392 74.9989 2.31392C75.1954 2.31392 75.3795 2.35062 75.5511 2.42401C75.7227 2.4974 75.8737 2.5992 76.0039 2.7294C76.1341 2.85961 76.2359 3.01054 76.3093 3.18217C76.3826 3.35381 76.4193 3.53788 76.4193 3.73438C76.4193 3.93087 76.3826 4.11494 76.3093 4.28658C76.2359 4.45821 76.1341 4.60914 76.0039 4.73935C75.8737 4.86955 75.7227 4.97135 75.5511 5.04474C75.3795 5.11813 75.1954 5.15483 74.9989 5.15483ZM74.9989 4.89027C75.212 4.89027 75.4055 4.83819 75.5795 4.73402C75.7547 4.62985 75.8944 4.49077 75.9985 4.31676C76.1027 4.14157 76.1548 3.94744 76.1548 3.73438C76.1548 3.52131 76.1027 3.32777 75.9985 3.15376C75.8944 2.97857 75.7547 2.8389 75.5795 2.73473C75.4055 2.63056 75.212 2.57848 74.9989 2.57848C74.7858 2.57848 74.5917 2.63056 74.4165 2.73473C74.2425 2.8389 74.1034 2.97857 73.9992 3.15376C73.8951 3.32777 73.843 3.52131 73.843 3.73438C73.843 3.94744 73.8951 4.14157 73.9992 4.31676C74.1034 4.49077 74.2425 4.62985 74.4165 4.73402C74.5917 4.83819 74.7858 4.89027 74.9989 4.89027Z" fill="black"/>
<path d="M47.408 13C47.288 13 47.228 12.956 47.228 12.868C47.228 12.796 47.28 12.748 47.384 12.724L47.66 12.676C47.828 12.644 47.936 12.6 47.984 12.544C48.04 12.488 48.068 12.376 48.068 12.208V5.152C48.068 4.984 48.04 4.872 47.984 4.816C47.936 4.76 47.828 4.716 47.66 4.684L47.384 4.636C47.28 4.612 47.228 4.564 47.228 4.492C47.228 4.404 47.288 4.36 47.408 4.36H49.844C50.244 4.36 50.6 4.444 50.912 4.612C51.224 4.78 51.468 5.008 51.644 5.296C51.828 5.584 51.92 5.912 51.92 6.28C51.92 6.64 51.812 6.976 51.596 7.288C51.388 7.592 51.084 7.848 50.684 8.056C50.636 8.08 50.612 8.112 50.612 8.152C50.612 8.192 50.64 8.22 50.696 8.236C51.24 8.42 51.66 8.716 51.956 9.124C52.252 9.524 52.4 10 52.4 10.552C52.4 11.024 52.292 11.448 52.076 11.824C51.86 12.192 51.56 12.48 51.176 12.688C50.8 12.896 50.372 13 49.892 13H47.408ZM49.556 8.068C49.98 8.068 50.332 7.904 50.612 7.576C50.9 7.24 51.044 6.824 51.044 6.328C51.044 5.832 50.908 5.432 50.636 5.128C50.364 4.816 50.004 4.66 49.556 4.66C49.132 4.66 48.92 4.82 48.92 5.14V7.408C48.92 7.64 48.968 7.808 49.064 7.912C49.168 8.016 49.332 8.068 49.556 8.068ZM49.736 12.7C50.256 12.7 50.68 12.504 51.008 12.112C51.336 11.712 51.5 11.18 51.5 10.516C51.5 9.852 51.332 9.328 50.996 8.944C50.668 8.56 50.224 8.368 49.664 8.368C49.168 8.368 48.92 8.564 48.92 8.956V11.872C48.92 12.424 49.192 12.7 49.736 12.7ZM53.0545 13C52.9585 13 52.9105 12.956 52.9105 12.868C52.9105 12.788 52.9545 12.74 53.0425 12.724L53.2105 12.7C53.3785 12.676 53.4865 12.628 53.5345 12.556C53.5905 12.484 53.6185 12.364 53.6185 12.196V5.32C53.6185 5.176 53.5945 5.08 53.5465 5.032C53.5065 4.976 53.4305 4.94 53.3185 4.924L53.0665 4.888C52.9785 4.872 52.9345 4.824 52.9345 4.744C52.9345 4.664 52.9785 4.616 53.0665 4.6C53.2905 4.552 53.4785 4.496 53.6305 4.432C53.7825 4.368 53.9105 4.304 54.0145 4.24C54.1425 4.16 54.2385 4.12 54.3025 4.12C54.3905 4.12 54.4345 4.184 54.4345 4.312V7.492C54.4345 7.564 54.4585 7.608 54.5065 7.624C54.5545 7.632 54.6145 7.604 54.6865 7.54C54.9905 7.26 55.2585 7.068 55.4905 6.964C55.7225 6.86 55.9665 6.808 56.2225 6.808C56.5985 6.808 56.8945 6.936 57.1105 7.192C57.3265 7.44 57.4345 7.808 57.4345 8.296V12.196C57.4345 12.364 57.4585 12.484 57.5065 12.556C57.5625 12.62 57.6745 12.664 57.8425 12.688L58.1065 12.724C58.1945 12.74 58.2385 12.788 58.2385 12.868C58.2385 12.956 58.1905 13 58.0945 13H56.0785C55.9665 13 55.9105 12.956 55.9105 12.868C55.9105 12.788 55.9545 12.74 56.0425 12.724L56.2105 12.7C56.3785 12.676 56.4865 12.628 56.5345 12.556C56.5905 12.484 56.6185 12.364 56.6185 12.196V8.428C56.6185 8.036 56.5465 7.76 56.4025 7.6C56.2585 7.44 56.0545 7.36 55.7905 7.36C55.5345 7.36 55.3025 7.436 55.0945 7.588C54.8945 7.732 54.7345 7.928 54.6145 8.176C54.4945 8.416 54.4345 8.684 54.4345 8.98V12.196C54.4345 12.364 54.4585 12.484 54.5065 12.556C54.5625 12.628 54.6745 12.672 54.8425 12.688L55.1665 12.724C55.2545 12.74 55.2985 12.788 55.2985 12.868C55.2985 12.956 55.2505 13 55.1545 13H53.0545ZM59.8072 13.108C59.4712 13.108 59.1952 13.004 58.9792 12.796C58.7632 12.58 58.6552 12.296 58.6552 11.944C58.6552 11.6 58.7632 11.276 58.9792 10.972C59.1952 10.66 59.4912 10.38 59.8672 10.132C60.2432 9.884 60.6712 9.684 61.1512 9.532C61.2552 9.5 61.3072 9.432 61.3072 9.328V8.236C61.3072 7.852 61.2472 7.58 61.1272 7.42C61.0072 7.252 60.8432 7.168 60.6352 7.168C60.4352 7.168 60.2512 7.26 60.0832 7.444C59.9232 7.62 59.8072 7.92 59.7352 8.344C59.6952 8.6 59.6072 8.788 59.4712 8.908C59.3432 9.02 59.2112 9.076 59.0752 9.076C58.8512 9.076 58.7392 8.964 58.7392 8.74C58.7392 8.508 58.8032 8.28 58.9312 8.056C59.0672 7.824 59.2432 7.616 59.4592 7.432C59.6752 7.24 59.9112 7.088 60.1672 6.976C60.4232 6.864 60.6792 6.808 60.9352 6.808C61.7272 6.808 62.1232 7.268 62.1232 8.188V11.86C62.1232 12.196 62.2072 12.364 62.3752 12.364C62.4792 12.364 62.5752 12.296 62.6632 12.16C62.7512 12.016 62.7952 11.776 62.7952 11.44C62.7952 11.312 62.8472 11.248 62.9512 11.248C63.0472 11.248 63.0952 11.316 63.0952 11.452C63.0952 12.036 62.9912 12.46 62.7832 12.724C62.5832 12.98 62.3552 13.108 62.0992 13.108C61.9072 13.108 61.7552 13.032 61.6432 12.88C61.5312 12.72 61.4552 12.532 61.4152 12.316C61.4072 12.236 61.3712 12.196 61.3072 12.196C61.2512 12.188 61.1952 12.224 61.1392 12.304C60.9472 12.568 60.7512 12.768 60.5512 12.904C60.3512 13.04 60.1032 13.108 59.8072 13.108ZM60.1312 12.556C60.3392 12.556 60.5312 12.484 60.7072 12.34C60.8832 12.188 61.0272 11.988 61.1392 11.74C61.2512 11.492 61.3072 11.212 61.3072 10.9V10.024C61.3072 9.872 61.2232 9.828 61.0552 9.892C60.5672 10.068 60.1872 10.312 59.9152 10.624C59.6512 10.928 59.5192 11.296 59.5192 11.728C59.5192 12.28 59.7232 12.556 60.1312 12.556ZM65.0082 7.648C65.3362 7.088 65.7322 6.808 66.1962 6.808C66.4602 6.808 66.6562 6.888 66.7842 7.048C66.9122 7.2 66.9762 7.372 66.9762 7.564C66.9762 7.716 66.9362 7.84 66.8562 7.936C66.7842 8.032 66.6682 8.08 66.5082 8.08C66.3802 8.08 66.2842 8.052 66.2202 7.996C66.1642 7.932 66.1162 7.86 66.0762 7.78C66.0442 7.7 66.0042 7.632 65.9562 7.576C65.9082 7.512 65.8282 7.48 65.7162 7.48C65.5722 7.48 65.4362 7.568 65.3082 7.744C65.1802 7.912 65.0722 8.14 64.9842 8.428C64.9042 8.716 64.8642 9.044 64.8642 9.412V12.196C64.8642 12.364 64.8882 12.484 64.9362 12.556C64.9922 12.628 65.1042 12.672 65.2722 12.688L65.5962 12.724C65.6842 12.74 65.7282 12.784 65.7282 12.856C65.7282 12.952 65.6682 13 65.5482 13H63.5202C63.4002 13 63.3402 12.956 63.3402 12.868C63.3402 12.796 63.3922 12.748 63.4962 12.724L63.6402 12.7C63.8082 12.668 63.9162 12.62 63.9642 12.556C64.0202 12.484 64.0482 12.364 64.0482 12.196V8.164C64.0482 8.02 64.0242 7.924 63.9762 7.876C63.9362 7.82 63.8602 7.784 63.7482 7.768L63.4962 7.732C63.3922 7.724 63.3402 7.68 63.3402 7.6C63.3402 7.536 63.4042 7.492 63.5322 7.468C63.7802 7.428 63.9682 7.364 64.0962 7.276C64.2322 7.188 64.3722 7.08 64.5162 6.952C64.5882 6.88 64.6482 6.844 64.6962 6.844C64.7682 6.844 64.8042 6.892 64.8042 6.988V7.636C64.8042 7.692 64.8282 7.728 64.8762 7.744C64.9242 7.752 64.9682 7.72 65.0082 7.648ZM68.2095 13.108C67.8735 13.108 67.5975 13.004 67.3815 12.796C67.1655 12.58 67.0575 12.296 67.0575 11.944C67.0575 11.6 67.1655 11.276 67.3815 10.972C67.5975 10.66 67.8935 10.38 68.2695 10.132C68.6455 9.884 69.0735 9.684 69.5535 9.532C69.6575 9.5 69.7095 9.432 69.7095 9.328V8.236C69.7095 7.852 69.6495 7.58 69.5295 7.42C69.4095 7.252 69.2455 7.168 69.0375 7.168C68.8375 7.168 68.6535 7.26 68.4855 7.444C68.3255 7.62 68.2095 7.92 68.1375 8.344C68.0975 8.6 68.0095 8.788 67.8735 8.908C67.7455 9.02 67.6135 9.076 67.4775 9.076C67.2535 9.076 67.1415 8.964 67.1415 8.74C67.1415 8.508 67.2055 8.28 67.3335 8.056C67.4695 7.824 67.6455 7.616 67.8615 7.432C68.0775 7.24 68.3135 7.088 68.5695 6.976C68.8255 6.864 69.0815 6.808 69.3375 6.808C70.1295 6.808 70.5255 7.268 70.5255 8.188V11.86C70.5255 12.196 70.6095 12.364 70.7775 12.364C70.8815 12.364 70.9775 12.296 71.0655 12.16C71.1535 12.016 71.1975 11.776 71.1975 11.44C71.1975 11.312 71.2495 11.248 71.3535 11.248C71.4495 11.248 71.4975 11.316 71.4975 11.452C71.4975 12.036 71.3935 12.46 71.1855 12.724C70.9855 12.98 70.7575 13.108 70.5015 13.108C70.3095 13.108 70.1575 13.032 70.0455 12.88C69.9335 12.72 69.8575 12.532 69.8175 12.316C69.8095 12.236 69.7735 12.196 69.7095 12.196C69.6535 12.188 69.5975 12.224 69.5415 12.304C69.3495 12.568 69.1535 12.768 68.9535 12.904C68.7535 13.04 68.5055 13.108 68.2095 13.108ZM68.5335 12.556C68.7415 12.556 68.9335 12.484 69.1095 12.34C69.2855 12.188 69.4295 11.988 69.5415 11.74C69.6535 11.492 69.7095 11.212 69.7095 10.9V10.024C69.7095 9.872 69.6255 9.828 69.4575 9.892C68.9695 10.068 68.5895 10.312 68.3175 10.624C68.0535 10.928 67.9215 11.296 67.9215 11.728C67.9215 12.28 68.1255 12.556 68.5335 12.556ZM73.2562 13.108C72.9762 13.108 72.7442 13.012 72.5602 12.82C72.3842 12.62 72.2962 12.296 72.2962 11.848V7.36C72.2962 7.264 72.2482 7.216 72.1522 7.216H71.8042C71.6762 7.216 71.6122 7.168 71.6122 7.072C71.6122 7.008 71.6482 6.952 71.7202 6.904C71.9842 6.72 72.1962 6.524 72.3562 6.316C72.5162 6.1 72.6562 5.808 72.7762 5.44C72.8322 5.272 72.9002 5.188 72.9802 5.188C73.0682 5.188 73.1122 5.252 73.1122 5.38V6.712C73.1122 6.824 73.1682 6.88 73.2802 6.88H74.0602C74.1882 6.88 74.2522 6.936 74.2522 7.048C74.2522 7.16 74.1882 7.216 74.0602 7.216H73.2802C73.1682 7.216 73.1122 7.272 73.1122 7.384V11.86C73.1122 12.036 73.1402 12.176 73.1962 12.28C73.2522 12.376 73.3562 12.424 73.5082 12.424C73.6762 12.424 73.8122 12.34 73.9162 12.172C74.0282 12.004 74.1002 11.732 74.1322 11.356C74.1482 11.244 74.2002 11.188 74.2882 11.188C74.3842 11.188 74.4322 11.248 74.4322 11.368C74.4082 11.984 74.2802 12.428 74.0482 12.7C73.8242 12.972 73.5602 13.108 73.2562 13.108Z" fill="#FF591D"/>
</svg>
