<svg width="122" height="40" viewBox="0 0 122 40" fill="none" xmlns="http://www.w3.org/2000/svg">
<path d="M10.8506 31.496C9.1559 31.496 7.67824 31.1757 6.41757 30.535C5.1569 29.8943 4.15457 29.016 3.41057 27.9C2.68724 26.7633 2.26357 25.451 2.13957 23.963L4.92957 23.777C5.07424 24.8723 5.39457 25.8023 5.89057 26.567C6.38657 27.3317 7.0479 27.9103 7.87457 28.303C8.7219 28.6957 9.73457 28.892 10.9126 28.892C11.9459 28.892 12.8242 28.7577 13.5476 28.489C14.2709 28.2203 14.8186 27.8277 15.1906 27.311C15.5832 26.7943 15.7796 26.164 15.7796 25.42C15.7796 24.738 15.6142 24.1387 15.2836 23.622C14.9736 23.0847 14.3639 22.599 13.4546 22.165C12.5659 21.7103 11.2432 21.266 9.48657 20.832C7.7919 20.398 6.43824 19.9227 5.42557 19.406C4.43357 18.8893 3.71024 18.259 3.25557 17.515C2.82157 16.771 2.60457 15.8513 2.60457 14.756C2.60457 13.516 2.8939 12.431 3.47257 11.501C4.0719 10.5503 4.91924 9.81667 6.01457 9.3C7.1099 8.76267 8.4119 8.494 9.92057 8.494C11.5326 8.494 12.9172 8.804 14.0746 9.424C15.2319 10.0233 16.1516 10.85 16.8336 11.904C17.5156 12.958 17.9392 14.1567 18.1046 15.5L15.3146 15.686C15.1906 14.7973 14.9012 14.012 14.4466 13.33C14.0126 12.6273 13.4132 12.0797 12.6486 11.687C11.8839 11.2943 10.9539 11.098 9.85857 11.098C8.49457 11.098 7.40957 11.4287 6.60357 12.09C5.79757 12.7307 5.39457 13.578 5.39457 14.632C5.39457 15.314 5.54957 15.8823 5.85957 16.337C6.19024 16.771 6.7689 17.1637 7.59557 17.515C8.42224 17.8457 9.61057 18.2073 11.1606 18.6C12.9999 19.0547 14.4569 19.6023 15.5316 20.243C16.6269 20.863 17.4019 21.5863 17.8566 22.413C18.3319 23.2397 18.5696 24.18 18.5696 25.234C18.5696 26.5153 18.2389 27.6313 17.5776 28.582C16.9162 29.512 16.0069 30.2353 14.8496 30.752C13.6922 31.248 12.3592 31.496 10.8506 31.496ZM27.4794 31.372C25.7847 31.372 24.4311 30.9793 23.4184 30.194C22.4264 29.4087 21.9304 28.3133 21.9304 26.908C21.9304 25.5027 22.3437 24.397 23.1704 23.591C23.9971 22.785 25.3094 22.2167 27.1074 21.886L32.9354 20.801C32.9354 19.4163 32.6047 18.383 31.9434 17.701C31.3027 17.019 30.3314 16.678 29.0294 16.678C27.8927 16.678 26.9937 16.9363 26.3324 17.453C25.6711 17.949 25.2164 18.6723 24.9684 19.623L22.2094 19.406C22.5194 17.856 23.2634 16.6057 24.4414 15.655C25.6401 14.6837 27.1694 14.198 29.0294 14.198C31.1374 14.198 32.7494 14.7973 33.8654 15.996C34.9814 17.174 35.5394 18.8067 35.5394 20.894V27.683C35.5394 28.055 35.6014 28.3237 35.7254 28.489C35.8701 28.6337 36.0974 28.706 36.4074 28.706H37.0584V31C36.9757 31.0207 36.8414 31.031 36.6554 31.031C36.4694 31.0517 36.2731 31.062 36.0664 31.062C35.3224 31.062 34.7127 30.9483 34.2374 30.721C33.7827 30.473 33.4521 30.101 33.2454 29.605C33.0387 29.0883 32.9354 28.4167 32.9354 27.59L33.2454 27.652C33.1007 28.3547 32.7494 28.9953 32.1914 29.574C31.6334 30.132 30.9411 30.5763 30.1144 30.907C29.2877 31.217 28.4094 31.372 27.4794 31.372ZM27.7274 29.078C28.8227 29.078 29.7527 28.8713 30.5174 28.458C31.3027 28.024 31.9021 27.4453 32.3154 26.722C32.7287 25.978 32.9354 25.1513 32.9354 24.242V23.064L27.6034 24.056C26.4874 24.2627 25.7124 24.583 25.2784 25.017C24.8651 25.4303 24.6584 25.978 24.6584 26.66C24.6584 27.4247 24.9271 28.024 25.4644 28.458C26.0224 28.8713 26.7767 29.078 27.7274 29.078ZM45.922 31.372C44.4547 31.372 43.2043 31.1343 42.171 30.659C41.1583 30.1837 40.3627 29.5327 39.784 28.706C39.226 27.8587 38.9057 26.8977 38.823 25.823L41.551 25.637C41.7163 26.629 42.14 27.4247 42.822 28.024C43.504 28.6027 44.5373 28.892 45.922 28.892C47.038 28.892 47.9267 28.7163 48.588 28.365C49.27 27.993 49.611 27.404 49.611 26.598C49.611 26.164 49.5077 25.8023 49.301 25.513C49.0943 25.2237 48.6913 24.9757 48.092 24.769C47.4927 24.5417 46.604 24.3247 45.426 24.118C43.8553 23.8287 42.6153 23.4773 41.706 23.064C40.8173 22.63 40.1767 22.103 39.784 21.483C39.412 20.8423 39.226 20.088 39.226 19.22C39.226 17.7527 39.7633 16.554 40.838 15.624C41.9127 14.6733 43.442 14.198 45.426 14.198C46.7693 14.198 47.8957 14.446 48.805 14.942C49.735 15.4173 50.4583 16.058 50.975 16.864C51.5123 17.6493 51.8637 18.5173 52.029 19.468L49.301 19.654C49.177 19.0753 48.9497 18.569 48.619 18.135C48.2883 17.6803 47.8543 17.329 47.317 17.081C46.7797 16.8123 46.139 16.678 45.395 16.678C44.217 16.678 43.349 16.9053 42.791 17.36C42.233 17.8147 41.954 18.3933 41.954 19.096C41.954 19.6333 42.078 20.0777 42.326 20.429C42.5947 20.7597 43.0183 21.0387 43.597 21.266C44.1757 21.4727 44.9507 21.6587 45.922 21.824C47.596 22.1133 48.898 22.4647 49.828 22.878C50.758 23.2913 51.409 23.7977 51.781 24.397C52.153 24.9963 52.339 25.73 52.339 26.598C52.339 27.6107 52.0497 28.4787 51.471 29.202C50.913 29.9047 50.1483 30.442 49.177 30.814C48.2263 31.186 47.1413 31.372 45.922 31.372ZM55.8931 31V8.99H58.4971V18.197L58.1871 18.135C58.3938 17.2257 58.7451 16.4817 59.2411 15.903C59.7371 15.3243 60.3468 14.9007 61.0701 14.632C61.7934 14.3427 62.5891 14.198 63.4571 14.198C64.6351 14.198 65.6271 14.4667 66.4331 15.004C67.2598 15.5207 67.8798 16.2543 68.2931 17.205C68.7271 18.135 68.9441 19.2097 68.9441 20.429V31H66.3401V21.173C66.3401 19.5817 66.0508 18.4037 65.4721 17.639C64.9141 16.8743 64.0564 16.492 62.8991 16.492C61.5764 16.492 60.5121 16.895 59.7061 17.701C58.9001 18.507 58.4971 19.6747 58.4971 21.204V31H55.8931ZM77.0312 31L71.0482 14.57H73.9002L78.6742 28.334L83.4482 14.57H86.3002L80.3172 31H77.0312ZM93.203 31.372C91.5084 31.372 90.1547 30.9793 89.142 30.194C88.15 29.4087 87.654 28.3133 87.654 26.908C87.654 25.5027 88.0674 24.397 88.894 23.591C89.7207 22.785 91.033 22.2167 92.831 21.886L98.659 20.801C98.659 19.4163 98.3284 18.383 97.667 17.701C97.0264 17.019 96.055 16.678 94.753 16.678C93.6164 16.678 92.7174 16.9363 92.056 17.453C91.3947 17.949 90.94 18.6723 90.692 19.623L87.933 19.406C88.243 17.856 88.987 16.6057 90.165 15.655C91.3637 14.6837 92.893 14.198 94.753 14.198C96.861 14.198 98.473 14.7973 99.589 15.996C100.705 17.174 101.263 18.8067 101.263 20.894V27.683C101.263 28.055 101.325 28.3237 101.449 28.489C101.594 28.6337 101.821 28.706 102.131 28.706H102.782V31C102.699 31.0207 102.565 31.031 102.379 31.031C102.193 31.0517 101.997 31.062 101.79 31.062C101.046 31.062 100.436 30.9483 99.961 30.721C99.5064 30.473 99.1757 30.101 98.969 29.605C98.7624 29.0883 98.659 28.4167 98.659 27.59L98.969 27.652C98.8244 28.3547 98.473 28.9953 97.915 29.574C97.357 30.132 96.6647 30.5763 95.838 30.907C95.0114 31.217 94.133 31.372 93.203 31.372ZM93.451 29.078C94.5464 29.078 95.4764 28.8713 96.241 28.458C97.0264 28.024 97.6257 27.4453 98.039 26.722C98.4524 25.978 98.659 25.1513 98.659 24.242V23.064L93.327 24.056C92.211 24.2627 91.436 24.583 91.002 25.017C90.5887 25.4303 90.382 25.978 90.382 26.66C90.382 27.4247 90.6507 28.024 91.188 28.458C91.746 28.8713 92.5004 29.078 93.451 29.078ZM110.92 31C109.432 31 108.326 30.659 107.603 29.977C106.9 29.295 106.549 28.2307 106.549 26.784V10.726H109.153V26.722C109.153 27.466 109.318 27.9827 109.649 28.272C109.979 28.5613 110.486 28.706 111.168 28.706H113.524V31H110.92ZM104.131 16.864V14.57H113.524V16.864H104.131Z" fill="black"/>
<path d="M117.343 7.09659V3.9517H118.851C119.01 3.9517 119.164 3.99006 119.311 4.06676C119.462 4.14062 119.585 4.25142 119.682 4.39915C119.781 4.54403 119.831 4.72301 119.831 4.93608C119.831 5.14915 119.78 5.33381 119.678 5.49006C119.578 5.64347 119.45 5.76136 119.294 5.84375C119.141 5.92614 118.982 5.96733 118.817 5.96733H117.649V5.53693H118.672C118.817 5.53693 118.946 5.4858 119.06 5.38352C119.176 5.27841 119.235 5.12926 119.235 4.93608C119.235 4.73722 119.176 4.59517 119.06 4.50994C118.946 4.42472 118.821 4.3821 118.685 4.3821H117.892V7.09659H117.343ZM119.175 5.63494L119.959 7.09659H119.345L118.583 5.63494H119.175ZM118.497 8.97159C118.026 8.97159 117.584 8.88352 117.172 8.70739C116.76 8.53125 116.398 8.28693 116.085 7.97443C115.773 7.66193 115.529 7.29972 115.352 6.88778C115.176 6.47585 115.088 6.03409 115.088 5.5625C115.088 5.09091 115.176 4.64915 115.352 4.23722C115.529 3.82528 115.773 3.46307 116.085 3.15057C116.398 2.83807 116.76 2.59375 117.172 2.41761C117.584 2.24148 118.026 2.15341 118.497 2.15341C118.969 2.15341 119.411 2.24148 119.823 2.41761C120.235 2.59375 120.597 2.83807 120.909 3.15057C121.222 3.46307 121.466 3.82528 121.642 4.23722C121.818 4.64915 121.906 5.09091 121.906 5.5625C121.906 6.03409 121.818 6.47585 121.642 6.88778C121.466 7.29972 121.222 7.66193 120.909 7.97443C120.597 8.28693 120.235 8.53125 119.823 8.70739C119.411 8.88352 118.969 8.97159 118.497 8.97159ZM118.497 8.33665C119.009 8.33665 119.473 8.21165 119.891 7.96165C120.311 7.71165 120.646 7.37784 120.896 6.96023C121.146 6.53977 121.271 6.07386 121.271 5.5625C121.271 5.05114 121.146 4.58665 120.896 4.16903C120.646 3.74858 120.311 3.41335 119.891 3.16335C119.473 2.91335 119.009 2.78835 118.497 2.78835C117.986 2.78835 117.52 2.91335 117.1 3.16335C116.682 3.41335 116.348 3.74858 116.098 4.16903C115.848 4.58665 115.723 5.05114 115.723 5.5625C115.723 6.07386 115.848 6.53977 116.098 6.96023C116.348 7.37784 116.682 7.71165 117.1 7.96165C117.52 8.21165 117.986 8.33665 118.497 8.33665Z" fill="black"/>
</svg>
